<svg width="250" height="119" viewBox="0 0 250 119" fill="none" xmlns="http://www.w3.org/2000/svg">
<g clip-path="url(#clip0_1120_727)">
<path d="M240.964 0.0537408L9.05369 0C4.07155 0 0.00904792 4.06639 0.00904792 9.07323V56.2129C0.000119353 61.2197 4.05369 65.2861 9.03584 65.2861L240.938 65.3398C245.929 65.3398 249.982 61.2734 249.982 56.2756V9.12698C249.991 4.12908 245.938 0.0537408 240.956 0.0537408" fill="white"/>
<path d="M240.964 0.0537408L9.05369 0C4.07155 0 0.00904792 4.06639 0.00904792 9.07323V56.2129C0.000119353 61.2197 4.05369 65.2861 9.03584 65.2861L240.938 65.3398C245.929 65.3398 249.982 61.2734 249.982 56.2756V9.12698C249.991 4.12908 245.938 0.0537408 240.956 0.0537408M247.857 56.2666C247.857 60.0911 244.759 63.1992 240.947 63.1992L9.04476 63.1454C5.22333 63.1454 2.13405 60.0374 2.13405 56.2129V9.07323C2.14298 5.23973 5.24119 2.14067 9.05369 2.14067L240.956 2.19442C244.777 2.19442 247.866 5.30242 247.866 9.12698V56.2666H247.857Z" fill="#359BD6"/>
<path d="M191.438 49.4595H192.027C192.259 49.4595 192.491 49.4327 192.714 49.3789C191.536 49.1371 190.313 48.3131 189.482 46.7367L175.58 16.1403H175.161C175.045 17.5017 173.196 21.577 172.857 22.2846L162.036 46.8083C161.036 48.6713 159.429 49.4506 158.098 49.4506H157.679V49.9163H167.705V49.4506H167.295C166.089 49.4506 164.732 48.3847 165.509 46.5038L167.902 40.7088H178.875L181.179 46.5128C181.893 48.3937 180.58 49.4595 179.366 49.4595H178.955V49.9253H191.429V49.4595H191.438ZM168.723 38.7383L173.518 27.2109L178.089 38.7383H168.723Z" fill="#1F3162"/>
<path d="M205.634 17.5572V17.0914H191.437V17.5572H192.036C193.661 17.5572 194.991 18.8649 195.027 20.4861V46.5145C194.991 47.9118 194.018 49.0761 192.705 49.3807C192.482 49.4344 192.259 49.4613 192.018 49.4613H191.428V49.927H205.634V49.4613H205.036C203.402 49.4613 202.071 48.1446 202.036 46.5055V20.4681C202.089 18.847 203.411 17.5482 205.036 17.5482H205.625L205.634 17.5572Z" fill="#1F3162"/>
<path d="M233.687 40.4935C232.455 45.0346 229.375 47.9635 225.277 47.9635H215.455L232.812 16.8386V16.4356C232.259 16.7222 229.741 17.0446 227.857 17.0446H212.982C210.982 17.0446 208.196 16.5699 207.312 16.1937V24.3713H207.786V23.816C207.786 20.9498 209.607 19.0599 212.491 19.0241H223.812L206.652 49.4951V49.934H232.473L234.17 40.4935H233.696H233.687Z" fill="#1F3162"/>
<path d="M49.2321 33.972V33.4973H40.0714V33.9631H40.8125C42.3214 33.9631 43.2232 34.7334 43.2232 36.1038V44.4157C40.5268 46.9146 36.7321 48.4821 32.6696 48.4821C24.7411 48.4373 19.3661 42.1675 19.3661 32.8077C19.3661 23.403 24.7411 17.1333 32.6696 17.1333C38.8482 17.1333 43.125 20.1517 44.5446 25.5258H44.9375L43.9911 18.8978C41.2411 17.1243 37.7946 15.7271 32.6518 15.7271C22.7143 15.7271 15.8482 22.5521 15.8482 32.7987C15.8482 43.0095 22.7054 49.8345 32.6607 49.8883C39.6875 49.8883 44.0536 46.6907 46.1875 43.8424V36.0859C46.1696 34.7244 47.0179 33.9631 48.5268 33.9631H49.2321V33.972Z" fill="#359BD6"/>
<path d="M70.9196 45.223C69.1071 43.2346 65.0803 37.4575 65.0803 37.4575C64.1696 36.1767 62.741 34.6182 61.7321 34.1524C66.2321 34.1524 69.6785 29.7547 69.6785 25.2136C69.6785 19.741 66.2053 16.3911 60.5357 16.3911H47.9196V16.8569H48.5178C50.1518 16.8569 51.4821 18.1735 51.5178 19.8126V45.8411C51.4732 47.4622 50.1518 48.7699 48.5178 48.7699H47.9285V49.2357H58.1428V48.7699H57.5446C55.9107 48.7699 54.5803 47.4533 54.5535 45.8142V17.8511C55.1607 17.869 58 17.7615 60.3839 17.8869C63.866 18.0839 66.0714 20.7979 66.1875 25.0434C66.2143 26.0734 66.0982 27.193 65.8928 27.8558C64.5625 32.0834 61.0178 32.6567 58.5893 32.7283C57.1785 32.7641 56.116 32.7462 56.116 32.7462V33.1762C57.8214 33.1762 59.1875 34.8063 60.4107 36.3469C60.7678 36.7947 66.0446 44.4975 66.5714 45.1335C68.0357 46.898 70.375 49.2536 74.7321 49.2536H77.2946V48.7878C74.5446 48.761 72.8125 47.301 70.9375 45.241L70.9196 45.223Z" fill="#359BD6"/>
<path d="M96.116 16.8735H96.8749C98.2053 16.8735 99.2856 17.814 99.3481 19.1306V37.6443C99.3303 44.1201 95.1606 48.4283 88.9196 48.4283C82.6785 48.4283 78.991 43.8693 78.991 37.0353V19.1217C79.0535 17.805 80.1339 16.8646 81.4642 16.8646H82.2231V16.3988H72.7231V16.8646H73.4821C74.8303 16.8646 75.9285 17.8408 75.9553 19.1933V37.7249C75.9553 45.0337 81.1339 49.9062 88.9196 49.9062C96.7053 49.9062 101.536 45.0068 101.536 37.6443V19.0858C101.625 17.7961 102.696 16.8735 104.009 16.8735H104.777V16.4078H96.1249V16.8735H96.116Z" fill="#359BD6"/>
<path d="M117.42 16.4087H105.232V16.8744H105.83C107.384 16.8744 108.661 18.0567 108.812 19.5794V45.8318C108.777 47.4709 107.446 48.7786 105.804 48.7786H105.214V49.2443H115.446V48.7786H114.848C113.214 48.7786 111.884 47.4619 111.857 45.8318V17.8149H117.259C121.241 17.8149 123.446 20.69 123.562 24.9983C123.589 26.0372 123.473 27.1658 123.259 27.8286C121.143 34.5462 113.455 32.8802 113.455 32.8802V33.3281C119.33 36.4361 127.071 32.6294 127.071 25.473C127.071 19.8571 123.411 16.4087 117.429 16.4087H117.42Z" fill="#359BD6"/>
<path d="M145.643 15.7562C135.696 15.7562 128.83 22.5813 128.821 32.8368C128.821 43.0834 135.679 49.9174 145.634 49.9264C155.58 49.9264 162.446 43.1013 162.446 32.8458C162.446 22.5992 155.589 15.7562 145.643 15.7562ZM145.643 48.5112C137.705 48.5112 132.42 42.2325 132.42 32.8368C132.42 23.4322 137.714 17.1624 145.652 17.1624C153.589 17.1624 158.875 23.4412 158.875 32.8458C158.875 42.2504 153.58 48.5202 145.643 48.5202V48.5112Z" fill="#359BD6"/>
<path d="M90.25 108.79H88.4821V109.999H90.25V108.79Z" fill="#359BD6"/>
<path d="M90.25 111.144H88.4822V116.634H90.25V111.144Z" fill="#359BD6"/>
<path d="M98.4018 111.047C97.7768 111.002 97.1697 111.262 96.7589 111.745C96.4375 111.289 95.9018 111.02 95.3482 111.047C94.7679 110.984 94.1964 111.244 93.8572 111.71V111.145H92.0714V116.645H93.8572V112.856C93.8572 112.363 93.9554 111.987 94.5268 111.987C95.0982 111.987 95.1875 112.363 95.1875 112.856V116.645H96.9197V112.856C96.9197 112.363 97.0179 111.987 97.5804 111.987C98.1429 111.987 98.25 112.363 98.25 112.856V116.645H100.036V112.238C99.9822 111.459 99.2232 111.038 98.4018 111.038" fill="#359BD6"/>
<path d="M104.929 111.038C104.339 110.976 103.759 111.253 103.437 111.755V111.155H101.741V118.992H103.527V116.117C103.866 116.565 104.411 116.806 104.973 116.753C106.759 116.753 106.705 115.069 106.705 113.931C106.705 112.794 106.768 111.038 104.937 111.038M104.223 115.821C103.625 115.821 103.509 115.221 103.509 113.86C103.509 112.758 103.509 111.997 104.223 111.997C104.937 111.997 104.973 112.758 104.973 113.86C104.973 115.221 104.857 115.803 104.223 115.803V115.821Z" fill="#359BD6"/>
<path d="M110.223 108.79H108.455V116.645H110.223V108.79Z" fill="#359BD6"/>
<path d="M114.527 111.028C112.196 111.028 111.946 112.318 111.946 113.822C111.946 115.542 112.241 116.751 114.527 116.751C115.188 116.796 115.848 116.617 116.393 116.241C116.821 115.891 117.071 115.363 117.063 114.808H115.277C115.277 115.265 115.143 115.793 114.527 115.793C113.75 115.793 113.723 114.808 113.723 114.163H117.116C117.17 112.371 116.911 111.037 114.527 111.037M115.33 113.285H113.723C113.723 112.819 113.723 111.986 114.527 111.986C115.33 111.986 115.33 112.757 115.33 113.285Z" fill="#359BD6"/>
<path d="M125.009 111.046C124.384 111.002 123.777 111.261 123.366 111.745C123.045 111.279 122.509 111.02 121.946 111.046C121.366 110.993 120.804 111.243 120.455 111.709V111.145H118.67V116.644H120.455V112.856C120.455 112.363 120.554 111.987 121.116 111.987C121.679 111.987 121.786 112.363 121.786 112.856V116.644H123.518V112.856C123.518 112.363 123.616 111.987 124.179 111.987C124.741 111.987 124.839 112.363 124.839 112.856V116.644H126.625V112.238C126.58 111.458 125.839 111.037 125 111.037" fill="#359BD6"/>
<path d="M130.75 111.028C128.42 111.028 128.17 112.318 128.17 113.822C128.17 115.542 128.464 116.751 130.75 116.751C131.411 116.796 132.071 116.617 132.625 116.241C133.054 115.891 133.295 115.363 133.304 114.808H131.518C131.518 115.265 131.393 115.793 130.759 115.793C129.982 115.793 129.964 114.808 129.964 114.163H133.348C133.411 112.371 133.152 111.037 130.768 111.037M131.589 113.285H129.973C129.973 112.819 129.973 111.986 130.768 111.986C131.563 111.986 131.589 112.757 131.589 113.285Z" fill="#359BD6"/>
<path d="M138.241 111.037C137.946 111.037 137.652 111.082 137.375 111.189C137.134 111.297 136.929 111.476 136.777 111.7V111.135H134.991V116.635H136.777V112.846C136.777 112.354 136.875 111.968 137.438 111.968C138 111.968 138.107 112.354 138.107 112.846V116.635H139.893V112.228C139.813 111.449 139.071 111.028 138.232 111.028" fill="#359BD6"/>
<path d="M143.625 109.587L141.839 110.276V111.145H141.152V112.094H141.866V115.48C141.866 115.82 142.071 116.68 143.598 116.68C143.902 116.68 144.205 116.662 144.509 116.627V115.704C144.411 115.713 144.304 115.713 144.205 115.704C143.607 115.704 143.634 115.435 143.634 115.023V112.103H144.563V111.154H143.625V109.596V109.587Z" fill="#359BD6"/>
<path d="M148.277 111.028C145.946 111.028 145.696 112.318 145.696 113.822C145.696 115.542 146 116.751 148.277 116.751C150.554 116.751 150.857 115.551 150.857 113.822C150.857 112.309 150.607 111.028 148.277 111.028ZM148.277 115.766C147.625 115.766 147.455 115.408 147.455 113.733C147.455 112.586 147.518 112.013 148.277 112.013C149.036 112.013 149.089 112.613 149.089 113.733C149.089 115.408 148.929 115.766 148.277 115.766Z" fill="#359BD6"/>
<path d="M153.973 112.479C153.938 112.184 154.152 111.915 154.447 111.879H154.572C154.732 111.861 154.893 111.906 155.018 111.996C155.143 112.094 155.197 112.318 155.197 112.703H156.929C157.027 111.503 155.938 111.019 154.732 111.019C153.527 111.019 152.241 111.387 152.241 112.569C152.241 114.324 155.348 114.056 155.348 115.229C155.348 115.56 155.08 115.829 154.75 115.829H154.697C154.348 115.829 154.152 115.74 154.054 115.56C153.964 115.354 153.938 115.122 153.964 114.898H152.232C152.134 116.429 153.152 116.77 154.705 116.77C156.259 116.77 157.089 116.053 157.089 115.095C157.08 113.303 153.973 113.357 153.973 112.479Z" fill="#359BD6"/>
<path d="M93.723 101.042H92.5266C91.973 101.042 91.7052 100.881 91.7052 100.549V100.326L92.4016 98.4357H98.1784L98.9284 100.478L98.9819 100.684C98.9819 100.926 98.8034 101.042 98.4373 101.042H96.8301V102.135H103.723V101.042C102.821 101.042 102.303 100.854 102.178 100.478L97.6427 88.1174H94.9194L90.2141 100.496C90.1248 100.693 89.9551 100.836 89.7498 100.89C89.3748 100.997 88.9819 101.042 88.5891 101.024V102.135H93.7319V101.042H93.723ZM95.3659 90.4014L97.7498 97.0474H92.9373L95.3659 90.4014Z" fill="#1F3162"/>
<path d="M110.795 101.059C109.678 101.059 109.116 100.764 109.116 100.191V90.1053C109.116 89.5052 109.67 89.2365 110.795 89.2365V88.1259H104.553V89.2365C105.678 89.2365 106.25 89.5321 106.25 90.1143V100.2C106.25 100.8 105.678 101.068 104.553 101.068V102.143H110.795V101.068V101.059Z" fill="#1F3162"/>
<path d="M123.812 96.3577H122.58C122.545 97.531 122.179 98.6685 121.527 99.6448C120.92 100.352 120.027 100.738 119.098 100.684H114.92L123.554 89.6759V88.1174H111.929V93.8946L113.125 93.9483C113.187 93.2855 113.286 92.6317 113.437 91.9778C113.545 91.5031 113.714 91.0553 113.955 90.6343C114.143 90.3029 114.429 90.0342 114.768 89.8551C115.143 89.6849 115.554 89.5953 115.964 89.6132H120.375L111.473 100.585V102.135H123.812V96.3577Z" fill="#1F3162"/>
<path d="M131.009 101.059C129.893 101.059 129.339 100.764 129.339 100.191V90.1053C129.339 89.5052 129.893 89.2365 131.009 89.2365V88.1259H124.768V89.2365C125.893 89.2365 126.455 89.5321 126.455 90.1143V100.2C126.455 100.8 125.893 101.068 124.768 101.068V102.143H131.009V101.068V101.059Z" fill="#1F3162"/>
<path d="M133.571 89.5958H139.027C143.446 89.5958 146.411 93.7338 146.411 97.6121V98.3018H147.116C151.036 98.3018 152.723 98.2481 153.732 98.2212H154.643C155.446 98.2212 155.634 98.2212 155.634 100.263V105.288H88.616V106.685H157.053V100.263C157.053 98.3018 156.875 96.806 154.67 96.806H153.714C152.777 96.8329 151.232 96.8866 147.821 96.8866C147.455 92.5694 144.018 88.1896 139.036 88.1896H132.17V102.153H133.58V89.6137L133.571 89.5958Z" fill="#1F3162"/>
<path d="M59.4732 88.1256H12.2589C12.0089 88.1256 11.8036 88.3316 11.8036 88.5824V103.558H59.9286V88.5824C59.9286 88.3316 59.7232 88.1256 59.4732 88.1256Z" fill="#212121"/>
<path d="M67.9643 91.7012H67.2143C66.6697 91.7012 66.4286 91.8893 66.4286 92.3103V92.8925H68.7768V92.4178C68.7768 91.9699 68.5804 91.6923 67.9732 91.6923" fill="#5F6062"/>
<path d="M71.2143 108.477H67.0893C66.5446 108.477 66.3393 108.719 66.3393 109.104C66.3393 109.489 66.5446 109.731 67.0893 109.731H71.2143C71.7589 109.731 71.9643 109.489 71.9643 109.104C71.9643 108.719 71.7589 108.477 71.2143 108.477Z" fill="#5F6062"/>
<path d="M76.3393 88.1259H61.8839C61.6339 88.1259 61.4286 88.3319 61.4286 88.5827V118.525C61.4286 118.776 61.6339 118.982 61.8839 118.982H76.3393C76.5893 118.982 76.7946 118.776 76.7946 118.525V88.5827C76.7946 88.3319 76.5893 88.1259 76.3393 88.1259ZM65.3393 92.2818C65.3393 91.0368 65.9196 90.4994 67.0982 90.4994H67.6964C68.4821 90.4994 68.9911 90.7502 69.25 91.2876C69.5 90.6875 70.0803 90.4904 70.875 90.4904H72.0536C72.4286 90.4904 72.6964 90.4815 72.9821 90.3561V91.5832C72.7857 91.6459 72.6696 91.6907 72.0446 91.6907H70.8482C70.1428 91.6907 69.875 91.9325 69.875 92.4789V92.8909H72.9821V94.0911H65.3482V92.2728L65.3393 92.2818ZM65.3393 96.7244C65.3393 95.4794 65.9196 94.942 67.0982 94.942H67.375C68.1607 94.942 68.6607 95.1838 68.9107 95.7212C69.1607 95.0763 69.7411 94.8255 70.5446 94.8255H71.1696C72.3482 94.8255 72.9821 95.4525 72.9821 96.6527V98.5426H65.3482V96.7244H65.3393ZM72.9732 100.576H71.8125V99.4204H72.9732V100.576ZM65.3393 104.83L70.7589 103.944L65.3393 103.12V101.445H72.9732V102.582H67.5L72.9732 103.415V104.553L67.5714 105.448H72.9732V106.496H65.3393V104.821V104.83ZM72.9732 116.976H71.8125V115.82H72.9732V116.976ZM71.1428 115.149H67.1696C65.9464 115.149 65.25 114.539 65.25 113.357C65.25 112.175 65.9464 111.566 67.1696 111.566H67.9107V112.703H67.0893C66.5446 112.703 66.3393 112.945 66.3393 113.33C66.3393 113.715 66.5446 113.957 67.0893 113.957H71.2143C71.7589 113.957 71.9553 113.715 71.9553 113.33C71.9553 112.945 71.7589 112.703 71.2143 112.703H70.125V111.566H71.1428C72.3661 111.566 73.0625 112.175 73.0625 113.357C73.0625 114.539 72.3661 115.149 71.1428 115.149ZM71.1428 110.921H67.1696C65.9464 110.921 65.25 110.276 65.25 109.094C65.25 107.911 65.9464 107.267 67.1696 107.267H71.1428C72.3661 107.267 73.0625 107.911 73.0625 109.094C73.0625 110.276 72.3661 110.921 71.1428 110.921Z" fill="#5F6062"/>
<path d="M71.1339 96.0287H70.4643C69.7589 96.0287 69.5357 96.2616 69.5357 96.8079V97.3453H71.8839V96.6557C71.8839 96.2526 71.6964 96.0287 71.1339 96.0287Z" fill="#5F6062"/>
<path d="M67.6429 96.144H67.2143C66.6697 96.144 66.4286 96.3321 66.4286 96.7531V97.3353H68.4464V96.8695C68.4464 96.4217 68.25 96.144 67.6429 96.144Z" fill="#5F6062"/>
<path d="M72.9821 115.819H71.8214V116.975H72.9821V115.819Z" fill="white"/>
<path d="M72.9732 92.8988H69.8661V92.4868C69.8661 91.9404 70.125 91.6986 70.8393 91.6986H72.0357C72.6607 91.6986 72.7768 91.6538 72.9732 91.5911V90.364C72.6875 90.4805 72.4197 90.4984 72.0447 90.4984H70.8661C70.0715 90.4984 69.4911 90.6954 69.2411 91.2955C68.9911 90.7581 68.4732 90.5073 67.6875 90.5073H67.0893C65.9107 90.5073 65.3304 91.0447 65.3304 92.2897V94.108H72.9643V92.9077L72.9732 92.8988ZM68.7768 92.8988H66.4286V92.3166C66.4286 91.8867 66.6697 91.7075 67.2143 91.7075H67.9643C68.5715 91.7075 68.7679 91.9762 68.7679 92.433V92.9077L68.7768 92.8988Z" fill="white"/>
<path d="M73.0627 113.357C73.0627 112.175 72.3662 111.566 71.143 111.566H70.1252V112.703H71.2144C71.7591 112.703 71.9555 112.945 71.9555 113.33C71.9555 113.716 71.7591 113.957 71.2144 113.957H67.0894C66.5448 113.957 66.3394 113.716 66.3394 113.33C66.3394 112.945 66.5448 112.703 67.0894 112.703H67.9109V111.566H67.1698C65.9466 111.566 65.2502 112.175 65.2502 113.357C65.2502 114.54 65.9466 115.149 67.1698 115.149H71.143C72.3662 115.149 73.0627 114.54 73.0627 113.357Z" fill="white"/>
<path d="M67.1698 110.931H71.143C72.3662 110.931 73.0627 110.286 73.0627 109.104C73.0627 107.922 72.3662 107.277 71.143 107.277H67.1698C65.9466 107.277 65.2502 107.922 65.2502 109.104C65.2502 110.286 65.9466 110.931 67.1698 110.931ZM67.0894 108.477H71.2144C71.7591 108.477 71.9644 108.719 71.9644 109.104C71.9644 109.489 71.7591 109.731 71.2144 109.731H67.0894C66.5448 109.731 66.3394 109.489 66.3394 109.104C66.3394 108.719 66.5448 108.477 67.0894 108.477Z" fill="white"/>
<path d="M72.9734 101.454H65.3394V103.129L70.7591 103.953L65.3394 104.84V106.505H72.9734V105.458H67.5716L72.9734 104.562V103.424L67.5002 102.591H72.9734V101.454Z" fill="white"/>
<path d="M72.9823 99.4211H71.8216V100.577H72.9823V99.4211Z" fill="white"/>
<path d="M72.9734 96.6536C72.9734 95.4534 72.3395 94.8264 71.1609 94.8264H70.5359C69.7323 94.8264 69.152 95.0772 68.902 95.7221C68.652 95.1847 68.152 94.9429 67.3662 94.9429H67.0895C65.9109 94.9429 65.3305 95.4803 65.3305 96.7253V98.5435H72.9645V96.6536H72.9734ZM68.4466 97.3433H66.4288V96.7611C66.4288 96.3312 66.6698 96.152 67.2145 96.152H67.643C68.2502 96.152 68.4466 96.4207 68.4466 96.8775V97.3522V97.3433ZM71.8841 97.3433H69.5359V96.8059C69.5359 96.2595 69.7502 96.0266 70.4645 96.0266H71.1341C71.7055 96.0266 71.8841 96.2416 71.8841 96.6536V97.3433Z" fill="white"/>
<path d="M11.8036 103.559V118.535C11.8036 118.786 12.0089 118.992 12.2589 118.992H59.4732C59.7232 118.992 59.9286 118.786 59.9286 118.535V103.559H11.8036Z" fill="#EDB924"/>
<path d="M26.2053 90.2483H23.5357C23.3839 90.2483 23.2589 90.3289 23.1785 90.4811L22.1785 92.4964C21.9464 92.9622 21.6964 93.5265 21.4107 94.1803C21.1339 94.8341 20.9017 95.3805 20.7232 95.8194H20.6607C20.4821 95.3805 20.2589 94.8341 19.9732 94.1803C19.6964 93.5265 19.4375 92.9622 19.2053 92.4964L18.2053 90.4811C18.1339 90.3289 18.0089 90.2483 17.8482 90.2483H15.1785C15.0089 90.2483 14.866 90.3916 14.866 90.5618V101.113C14.866 101.283 15.0089 101.426 15.1785 101.426H17.5446C17.7142 101.426 17.8571 101.283 17.8571 101.113V99.9664C17.8571 98.381 17.8035 96.6882 17.6875 94.8879L17.7678 94.87C17.8839 95.1835 18.0803 95.6761 18.366 96.3478C18.6517 97.0196 18.9196 97.6466 19.1875 98.2288L19.4553 98.811C19.5267 98.9632 19.6428 99.0438 19.8125 99.0438H21.5625C21.7321 99.0438 21.8482 98.9632 21.9196 98.811L22.1875 98.2288C22.4464 97.6466 22.7232 97.0196 23.0089 96.3478C23.2946 95.6761 23.491 95.1835 23.6071 94.87L23.6875 94.8879C23.5714 96.6882 23.5178 98.39 23.5178 99.9664V101.104C23.5178 101.274 23.6607 101.417 23.8303 101.417H26.1964C26.366 101.417 26.5089 101.274 26.5089 101.104V90.5438C26.5089 90.3737 26.366 90.2303 26.1964 90.2303" fill="white"/>
<path d="M35.9553 98.6955H31.6518V97.1191H35.0803C35.25 97.1191 35.3928 96.9758 35.3928 96.8056V94.7545C35.3928 94.5844 35.25 94.441 35.0803 94.441H31.6518V92.99H35.6875C35.8571 92.99 36 92.8467 36 92.6766V90.5628C36 90.3926 35.8571 90.2493 35.6875 90.2493H28.9196C28.75 90.2493 28.6071 90.3926 28.6071 90.5628V101.114C28.6071 101.284 28.75 101.427 28.9196 101.427H35.9464C36.116 101.427 36.2589 101.284 36.2589 101.114V99.0001C36.2589 98.8299 36.116 98.6866 35.9464 98.6866" fill="white"/>
<path d="M45.991 94.7554H42.1428C41.9732 94.7554 41.8303 94.8987 41.8303 95.0689V96.8692C41.8303 97.0394 41.9732 97.1827 42.1428 97.1827H43.4375V98.4815C43.0178 98.6606 42.5714 98.7502 42.0982 98.7502C41.5893 98.7502 41.2053 98.6158 40.9553 98.3471C40.7053 98.0784 40.5714 97.7022 40.5714 97.2096V94.4151C40.5714 93.9493 40.7053 93.5821 40.9732 93.3223C41.2411 93.0626 41.6339 92.9282 42.1607 92.9282C43.0089 92.9282 43.7232 93.0895 44.2768 93.4119L44.4821 93.4746L44.7053 93.3313L46 91.4683L46.0625 91.2623L45.9196 91.0294C45.4018 90.7159 44.8125 90.4741 44.1518 90.2949C43.4911 90.1158 42.8303 90.0262 42.1607 90.0262C40.6696 90.0262 39.5178 90.4024 38.6964 91.1638C37.875 91.9161 37.4643 92.9641 37.4643 94.2986V97.3171C37.4643 98.6875 37.8661 99.7444 38.6696 100.506C39.4732 101.267 40.6161 101.643 42.0893 101.643C42.8571 101.643 43.5982 101.5 44.3214 101.204C45.0357 100.918 45.6518 100.515 46.1607 100.013C46.2589 99.9146 46.3036 99.7981 46.3036 99.6548V95.06C46.3036 94.8898 46.1607 94.7465 45.991 94.7465" fill="white"/>
<path d="M54 90.5001C53.9375 90.3299 53.8214 90.2493 53.6607 90.2493H50.7946C50.625 90.2493 50.5178 90.3299 50.4553 90.5001L46.9286 101.069L46.9018 101.194L46.9821 101.365L47.1875 101.427H49.7589C49.9553 101.427 50.0803 101.338 50.1161 101.159L50.5535 99.627H53.9375L54.3571 101.159C54.4018 101.338 54.5178 101.427 54.7143 101.427H57.2857L57.491 101.365L57.5714 101.194L57.5357 101.069L54.0089 90.5001H54ZM51.2678 97.0475L52.1875 93.5633H52.25L53.1875 97.0475H51.2678Z" fill="white"/>
<path d="M15.0894 117.011H16.7412C16.8662 117.011 16.9644 116.913 16.9644 116.787V114.871C17.2234 114.96 17.5269 115.005 17.8751 115.005C18.6073 115.005 19.1966 114.772 19.643 114.306C20.0805 113.841 20.3037 113.205 20.3037 112.408V111.395C20.3037 110.876 20.1876 110.419 19.9644 110.016C19.7412 109.613 19.4109 109.3 18.9912 109.076C18.5716 108.852 18.0894 108.744 17.5448 108.744C17.143 108.744 16.7144 108.78 16.2501 108.861C15.7948 108.941 15.3841 109.049 15.0269 109.174C14.9198 109.201 14.8662 109.291 14.8662 109.425V116.796C14.8662 116.922 14.9644 117.02 15.0984 117.02M16.9734 110.697C17.143 110.634 17.3216 110.607 17.5091 110.607C17.9466 110.607 18.1698 110.849 18.1698 111.333V112.461C18.1698 112.694 18.1162 112.873 18.0091 112.999C17.9019 113.124 17.7412 113.187 17.5269 113.187C17.3305 113.187 17.1519 113.16 16.9823 113.097V110.688L16.9734 110.697Z" fill="#212121"/>
<path d="M21.8573 114.353C22.3751 114.792 23.0537 115.007 23.893 115.007C24.8215 115.007 25.5983 114.765 26.2233 114.281L26.3126 114.111L26.259 113.968L25.5805 113.027L25.4108 112.92L25.2769 112.965C24.893 113.18 24.4644 113.287 23.9823 113.287C23.7323 113.287 23.5448 113.224 23.4108 113.099C23.2769 112.974 23.2144 112.795 23.2144 112.553V112.499H26.2144C26.3394 112.499 26.4465 112.391 26.4465 112.266V111.218C26.4465 110.376 26.2144 109.749 25.7501 109.337C25.2858 108.934 24.6519 108.728 23.8394 108.728C23.0269 108.728 22.3305 108.934 21.8394 109.346C21.3483 109.758 21.0983 110.385 21.0983 111.209V112.49C21.0983 113.287 21.3573 113.905 21.8751 114.344M23.2144 111.084C23.2144 110.627 23.4108 110.403 23.8215 110.403C24.018 110.403 24.1698 110.466 24.2769 110.582C24.384 110.699 24.4376 110.869 24.4376 111.093V111.272H23.2233V111.093L23.2144 111.084Z" fill="#212121"/>
<path d="M27.1517 114.253C27.5089 114.495 27.8928 114.683 28.3214 114.808C28.741 114.942 29.1607 115.005 29.5714 115.005C30.491 115.005 31.1696 114.835 31.616 114.477C32.0625 114.127 32.2857 113.608 32.2857 112.909C32.2857 112.39 32.1071 111.969 31.741 111.646C31.375 111.324 30.8392 111.1 30.1339 110.992C29.8035 110.939 29.5803 110.885 29.4821 110.84L29.3392 110.634L29.4553 110.437C29.5357 110.401 29.6607 110.383 29.8392 110.383C30.2767 110.383 30.6875 110.482 31.0714 110.67L31.1964 110.706L31.375 110.589L32.0267 109.55L32.0714 109.398L31.9464 109.228C31.2678 108.888 30.5714 108.717 29.8571 108.717C29.0089 108.717 28.3571 108.888 27.9196 109.228C27.4732 109.568 27.25 110.052 27.25 110.67C27.25 111.745 28.0178 112.399 29.5625 112.632C29.9642 112.694 30.1607 112.793 30.1607 112.936C30.1607 113.124 29.9642 113.223 29.5714 113.223C29.0357 113.223 28.5178 113.07 28.0357 112.766L27.9017 112.721L27.7321 112.846L27.0982 113.921L27.0535 114.056L27.1696 114.235L27.1517 114.253Z" fill="#212121"/>
<path d="M35.2322 111.254C34.4197 111.254 33.8037 111.397 33.3929 111.693C32.9733 111.988 32.7679 112.418 32.7679 112.992C32.7679 113.645 33.0001 114.147 33.4554 114.487C33.9108 114.837 34.6162 115.007 35.5626 115.007C35.9465 115.007 36.3572 114.98 36.7858 114.926C37.2144 114.873 37.5983 114.792 37.9554 114.693C38.0804 114.667 38.1519 114.577 38.1519 114.443V111.478C38.1519 109.642 37.2858 108.728 35.5537 108.728C35.0715 108.728 34.6251 108.782 34.2054 108.898C33.7858 109.015 33.4287 109.158 33.134 109.328L33.0804 109.445L33.134 109.606L33.6608 110.717L33.8304 110.833L33.9644 110.797C34.1162 110.726 34.3126 110.663 34.5626 110.609C34.8126 110.555 35.0358 110.537 35.2501 110.537C35.5537 110.537 35.759 110.6 35.8751 110.734C35.9912 110.869 36.0447 111.048 36.0447 111.29V111.317C35.8037 111.281 35.5358 111.263 35.2322 111.263M36.0447 113.341C35.8751 113.368 35.7144 113.386 35.5537 113.386C35.3394 113.386 35.1787 113.35 35.0715 113.269C34.9644 113.189 34.9108 113.072 34.9108 112.92C34.9108 112.786 34.9644 112.687 35.0715 112.615C35.1787 112.544 35.3394 112.508 35.5537 112.508C35.7144 112.508 35.8751 112.526 36.0537 112.562V113.341H36.0447Z" fill="#212121"/>
<path d="M40.3305 114.666C40.7501 114.89 41.2323 115.006 41.7769 115.006C42.1876 115.006 42.6162 114.97 43.0716 114.89C43.5269 114.809 43.9287 114.711 44.2769 114.576C44.3841 114.54 44.4555 114.433 44.4555 114.316V106.909C44.4555 106.784 44.3483 106.676 44.2233 106.676H42.5716C42.4466 106.676 42.3394 106.775 42.3394 106.909V108.862C42.0805 108.772 41.7769 108.727 41.4287 108.727C40.6966 108.727 40.1073 108.96 39.6608 109.426C39.2233 109.892 39.0001 110.528 39.0001 111.325V112.337C39.0001 112.856 39.1162 113.313 39.3394 113.716C39.5626 114.119 39.893 114.433 40.3126 114.657M41.1341 111.262C41.1341 111.029 41.1876 110.85 41.2948 110.716C41.4019 110.59 41.5626 110.528 41.7769 110.528C41.9733 110.528 42.1519 110.555 42.3216 110.617V113.027C42.1519 113.089 41.9733 113.116 41.7858 113.116C41.3483 113.116 41.1251 112.874 41.1251 112.382V111.253L41.1341 111.262Z" fill="#212121"/>
<path d="M48.1876 115.007C49.0715 115.007 49.7501 114.783 50.2412 114.344C50.7322 113.905 50.9733 113.287 50.9733 112.481V111.263C50.9733 110.466 50.7322 109.839 50.2412 109.4C49.7501 108.952 49.0715 108.728 48.1876 108.728C47.3037 108.728 46.6251 108.952 46.134 109.4C45.643 109.848 45.4019 110.466 45.4019 111.263V112.481C45.4019 113.278 45.643 113.896 46.134 114.344C46.6251 114.783 47.3037 115.007 48.1876 115.007ZM47.5358 111.263C47.5358 111.048 47.5894 110.887 47.6965 110.77C47.8037 110.654 47.9644 110.591 48.1787 110.591C48.393 110.591 48.5537 110.645 48.6608 110.77C48.768 110.887 48.8215 111.057 48.8215 111.263V112.481C48.8215 112.696 48.768 112.857 48.6608 112.974C48.5537 113.09 48.393 113.144 48.1787 113.144C47.9644 113.144 47.8037 113.09 47.6965 112.974C47.5894 112.857 47.5358 112.696 47.5358 112.481V111.263Z" fill="#212121"/>
<path d="M51.7411 114.253C52.0982 114.495 52.4821 114.683 52.9107 114.808C53.3304 114.942 53.75 115.005 54.1607 115.005C55.0804 115.005 55.7589 114.835 56.2054 114.477C56.6518 114.127 56.875 113.608 56.875 112.909C56.875 112.39 56.6964 111.969 56.3304 111.646C55.9643 111.324 55.4286 111.1 54.7232 110.992C54.3929 110.939 54.1696 110.885 54.0714 110.84L53.9286 110.634L54.0446 110.437C54.125 110.401 54.25 110.383 54.4286 110.383C54.8661 110.383 55.2768 110.482 55.6607 110.67L55.7857 110.706L55.9643 110.589L56.6161 109.55L56.6607 109.398L56.5357 109.228C55.8571 108.888 55.1607 108.717 54.4464 108.717C53.5982 108.717 52.9464 108.888 52.5089 109.228C52.0625 109.568 51.8393 110.052 51.8393 110.67C51.8393 111.745 52.6071 112.399 54.1518 112.632C54.5536 112.694 54.75 112.793 54.75 112.936C54.75 113.124 54.5536 113.223 54.1607 113.223C53.625 113.223 53.1071 113.07 52.625 112.766L52.4911 112.721L52.3214 112.846L51.6875 113.921L51.6429 114.056L51.7589 114.235L51.7411 114.253Z" fill="#212121"/>
<path d="M173.116 88.3678C173.089 88.4484 172.866 89.0395 172.616 89.6844C172.366 90.3293 172.089 91.0638 171.991 91.3146C171.893 91.5653 171.687 92.1028 171.536 92.5237C170.955 94.0643 169.473 97.9426 169.223 98.5875C169.125 98.8293 168.92 99.3936 168.75 99.8325C168.58 100.271 168.375 100.836 168.277 101.077C168.178 101.319 167.839 102.224 167.518 103.084C167.196 103.944 166.866 104.768 166.795 104.92C166.562 105.377 166.161 105.556 165.143 105.61L164.625 105.645V107.105H171.589L171.571 106.38L171.553 105.654L170.437 105.628C169.821 105.61 169.277 105.574 169.232 105.547C169 105.413 168.875 105.242 168.848 105.018C168.803 104.768 169 104.23 170.348 100.639C170.848 99.313 171.491 97.5843 171.884 96.5005C172.045 96.0437 172.25 95.4974 172.33 95.2914C172.491 94.8435 173.152 93.0522 173.455 92.2192C173.705 91.5295 173.777 91.3683 173.795 91.3952C173.821 91.422 174.17 92.3983 174.803 94.1718C175.018 94.7719 175.241 95.3989 175.303 95.5601C175.366 95.7213 175.589 96.3483 175.803 96.9484C176.018 97.5485 176.241 98.1755 176.295 98.3367C176.589 99.1249 176.946 100.146 176.946 100.2C176.946 100.244 176.187 100.262 174.741 100.262H172.536L172.375 100.719C172.286 100.97 172.125 101.4 172.018 101.669L171.83 102.161H177.571L177.839 102.914C177.991 103.335 178.241 104.015 178.393 104.436C178.83 105.636 178.812 105.654 177.018 105.654H175.759V107.132H185.009V105.654H184.625C183.964 105.654 183.348 105.475 183.107 105.198C183.009 105.09 182.803 104.589 182.446 103.585C182.366 103.37 182.17 102.833 182 102.376C181.83 101.919 181.607 101.31 181.5 101.015C181.393 100.719 181.071 99.8593 180.795 99.0891C180.518 98.3188 180.223 97.5306 180.143 97.3156C180.062 97.1006 179.839 96.4916 179.643 95.9542C179.446 95.4168 179.214 94.8077 179.143 94.5927C178.991 94.1807 178.321 92.3356 177.491 90.0964C177.205 89.3351 176.946 88.6096 176.911 88.5021L176.83 88.2961L174.991 88.2782H173.161L173.107 88.3946L173.116 88.3678Z" fill="#1A325C"/>
<path d="M186.134 88.9682V89.6937L186.616 89.7385C187.143 89.7833 187.705 89.9355 187.991 90.1146C188.089 90.1773 188.232 90.3475 188.303 90.4908L188.428 90.7506V97.7011C188.428 104.311 188.428 104.652 188.312 104.875C188.098 105.332 187.714 105.529 186.777 105.628L186.125 105.699V107.097H194.553V105.699L194.08 105.655C193.143 105.574 192.545 105.305 192.375 104.902C192.303 104.741 192.295 103.55 192.295 97.6742C192.295 91.0372 192.295 90.6252 192.402 90.4461C192.616 90.0609 193.161 89.828 194.089 89.7474L194.562 89.7026V88.2427H186.134V88.9771V88.9682Z" fill="#1A325C"/>
<path d="M196.098 92.1389V96.0441H196.536C196.768 96.0441 197.125 96.062 197.321 96.0799C197.741 96.1247 197.678 96.2321 197.83 95.0946C198.161 92.524 198.839 91.073 199.937 90.5714C200.634 90.249 200.687 90.249 204.178 90.249C205.955 90.249 207.411 90.2669 207.411 90.2848C207.411 90.3027 207.25 90.5177 207.045 90.7595C206.839 91.0103 206.384 91.5746 206.027 92.0135C205.67 92.4613 205.098 93.16 204.759 93.5809C203.348 95.3096 202.214 96.7069 201.652 97.3965C201.321 97.8085 200.545 98.758 199.928 99.5282C199.303 100.29 198.5 101.293 198.134 101.75C197.759 102.206 197.009 103.129 196.455 103.81L195.455 105.055V107.097H212.071V99.3491H210.42V99.6089C210.42 100.101 210.187 101.221 209.946 101.893C209.402 103.442 208.795 104.213 207.75 104.723C207.42 104.884 206.991 105.046 206.795 105.081C206.562 105.126 205.411 105.144 203.303 105.126L200.161 105.108L200.687 104.454C200.973 104.096 201.67 103.209 202.241 102.484C202.812 101.758 203.643 100.693 204.098 100.119C205.616 98.1937 210.928 91.4223 211.366 90.867L211.795 90.3207V88.2427H196.116V92.1478L196.098 92.1389Z" fill="#1A325C"/>
<path d="M213.125 88.9671V89.6926L213.607 89.7374C214.5 89.818 215.125 90.1046 215.295 90.5166C215.339 90.642 215.357 92.5767 215.348 97.7896L215.33 104.892L215.134 105.098C214.848 105.403 214.428 105.555 213.732 105.627L213.125 105.689V107.087H219.723V105.689L219.116 105.627C218.161 105.528 217.598 105.206 217.509 104.713C217.491 104.606 217.482 101.542 217.491 97.8971L217.509 91.278L218.241 93.3739C218.643 94.5293 219.089 95.8012 219.232 96.2132C219.384 96.6252 219.553 97.1357 219.634 97.3686C219.714 97.5925 220.5 99.8675 221.393 102.42L223.018 107.06H226.339L226.866 105.555C227.152 104.731 227.455 103.862 227.536 103.629C227.616 103.397 227.83 102.787 228.009 102.268C228.187 101.748 228.428 101.068 228.536 100.763C228.643 100.459 229.339 98.4345 230.098 96.2669C230.857 94.0994 231.545 92.111 231.643 91.8333C231.741 91.5646 231.821 91.3228 231.839 91.3048C231.848 91.2959 231.857 94.3412 231.848 98.0851L231.83 104.892L231.634 105.098C231.348 105.403 230.928 105.555 230.232 105.627L229.625 105.689V107.087H237.937V105.681L237.428 105.636C236.509 105.555 235.946 105.304 235.741 104.883C235.652 104.695 235.643 104.041 235.643 97.6731V90.6779L235.777 90.445C235.973 90.0778 236.5 89.8449 237.312 89.7553L237.946 89.6837V88.2327H230.705L230.5 88.8686C230.384 89.2269 230.062 90.1673 229.795 90.9824C229.518 91.7885 228.848 93.759 228.312 95.3533C227.777 96.9476 227.116 98.9002 226.848 99.6974C225.848 102.662 225.723 103.002 225.687 102.958C225.661 102.931 225.491 102.438 225.295 101.856C225.098 101.274 224.5 99.4824 223.955 97.8971C222.911 94.807 221.902 91.8243 221.161 89.621L220.705 88.2595L216.928 88.2416H213.143V88.9671H213.125Z" fill="#1A325C"/>
<path d="M172.553 118.748H170.259V112.488C170.5 112.371 170.759 112.434 171.009 112.425C171.25 112.416 171.5 112.407 171.741 112.425C171.982 112.443 172.241 112.353 172.464 112.47C172.491 112.658 172.321 112.649 172.277 112.783C172.366 112.9 172.527 112.971 172.562 113.133C172.777 113.097 172.893 112.935 173.018 112.837C173.607 112.362 174.277 112.3 174.991 112.362C175.643 112.416 176.125 112.729 176.491 113.285C176.616 113.204 176.732 113.141 176.839 113.034C177.491 112.398 178.268 112.255 179.143 112.38C179.669 112.452 180.08 112.685 180.375 113.097C180.598 113.401 180.768 113.759 180.768 114.136C180.794 115.658 180.777 117.181 180.777 118.704C180.473 118.793 179.062 118.82 178.428 118.748C178.312 118.641 178.366 118.498 178.366 118.363C178.366 117.315 178.366 116.267 178.366 115.219C178.366 115.085 178.366 114.951 178.339 114.816C178.196 114.198 177.527 114.046 177.053 114.476C176.973 114.548 176.91 114.637 176.848 114.7C176.669 115.434 176.75 116.16 176.741 116.876C176.732 117.486 176.741 118.104 176.741 118.704C176.455 118.802 174.946 118.82 174.357 118.739C174.277 118.65 174.312 118.533 174.312 118.426C174.312 117.297 174.312 116.169 174.312 115.04C174.312 114.637 174.035 114.288 173.678 114.207C173.428 114.154 172.893 114.378 172.785 114.709C172.696 114.996 172.598 115.264 172.598 115.578C172.607 116.518 172.598 117.459 172.598 118.399C172.598 118.507 172.625 118.614 172.553 118.757V118.748Z" fill="#EFBA1C"/>
<path d="M204.634 118.748H202.339C202.214 118.613 202.259 118.47 202.259 118.336C202.259 117.342 202.259 116.347 202.259 115.353C202.259 115.174 202.241 115.004 202.196 114.825C202.107 114.44 201.83 114.26 201.491 114.216C201.178 114.171 200.902 114.287 200.696 114.574C200.544 114.78 200.473 114.995 200.473 115.246C200.473 116.267 200.473 117.288 200.473 118.309C200.473 118.443 200.509 118.578 200.428 118.739H198.071C198.071 118.739 198.044 118.712 198.036 118.703C198.027 118.694 198.018 118.685 198.009 118.667C198 118.631 197.982 118.587 197.982 118.551C197.982 115.783 197.982 113.024 197.982 110.257C197.982 110.221 198 110.185 198.018 110.104C198.821 110.051 199.625 110.087 200.419 110.087C200.518 110.23 200.482 110.373 200.482 110.507C200.482 111.206 200.482 111.896 200.482 112.594C200.482 112.738 200.464 112.89 200.544 113.033C200.848 112.917 201.062 112.693 201.348 112.568C201.83 112.344 202.33 112.29 202.839 112.335C203.294 112.371 203.732 112.532 204.044 112.89C204.232 113.105 204.375 113.347 204.473 113.642C204.643 114.189 204.643 114.744 204.652 115.299C204.652 116.392 204.625 117.476 204.669 118.569C204.669 118.604 204.652 118.649 204.634 118.739V118.748Z" fill="#EFBA1C"/>
<path d="M216.643 118.74C216.143 118.803 214.58 118.794 214.25 118.723C214.169 118.588 214.214 118.436 214.214 118.293C214.214 117.2 214.187 116.116 214.214 115.023C214.214 114.576 213.991 114.378 213.598 114.244C213.348 114.155 212.928 114.325 212.741 114.576C212.571 114.817 212.482 115.068 212.491 115.373C212.5 116.349 212.491 117.334 212.491 118.311C212.491 118.445 212.518 118.579 212.464 118.714C212.134 118.803 210.482 118.803 210.08 118.714V112.453C210.812 112.417 211.527 112.408 212.259 112.453C212.294 112.748 212.286 113.026 212.366 113.313C212.491 113.196 212.598 113.098 212.705 112.999C213.357 112.408 214.125 112.247 214.982 112.372C215.402 112.426 215.732 112.596 216.044 112.874C216.223 113.035 216.357 113.223 216.428 113.42C216.589 113.886 216.714 114.37 216.696 114.88C216.669 116.08 216.696 117.272 216.696 118.472C216.696 118.552 216.714 118.633 216.643 118.731V118.74Z" fill="#EFBA1C"/>
<path d="M186.393 114.582C186.535 114.296 186.339 114.135 186.259 113.938C185.803 113.696 185.339 113.776 184.884 113.902C184.723 113.947 184.571 114.099 184.509 114.287C184.446 114.484 184.321 114.529 184.134 114.493C183.696 114.403 183.259 114.359 182.812 114.359C182.589 114.359 182.366 114.296 182.116 114.251C182.232 113.561 182.553 113.006 183.16 112.71C183.509 112.54 183.893 112.415 184.312 112.397C184.794 112.37 185.276 112.343 185.768 112.334C186.196 112.325 186.625 112.46 187.053 112.415C187.66 112.648 188.285 112.836 188.553 113.561C188.696 113.947 188.812 114.314 188.803 114.735C188.785 115.648 188.803 116.562 188.794 117.467C188.794 117.78 188.83 118.085 188.982 118.371C189.035 118.47 189.062 118.568 189.035 118.685C188.776 118.783 187.33 118.81 186.839 118.72C186.75 118.506 186.66 118.282 186.58 118.058C186.384 118.076 186.285 118.228 186.16 118.317C185.393 118.855 184.544 118.909 183.66 118.801C183.366 118.765 183.089 118.712 182.821 118.559C182.482 118.371 182.241 118.085 182.053 117.771C181.955 117.601 181.937 117.359 181.928 117.144C181.901 116.58 182.044 116.069 182.526 115.72C182.741 115.559 182.991 115.442 183.241 115.371C183.446 115.317 183.651 115.254 183.857 115.2C184.375 115.084 184.901 114.986 185.428 114.878C185.768 114.806 186.044 114.6 186.393 114.582ZM186.41 115.863C186.339 115.863 186.25 115.827 186.187 115.854C185.696 116.069 185.151 116.105 184.669 116.347C184.321 116.526 184.223 116.983 184.482 117.269C184.678 117.475 184.928 117.592 185.205 117.547C186.009 117.413 186.607 116.849 186.41 115.863Z" fill="#EFBA1C"/>
<path d="M220.178 116.167C220.321 116.705 220.446 117.153 220.946 117.323C221.589 117.538 222.134 117.403 222.536 116.848C223.321 116.911 224.071 117.072 224.866 117.072C224.652 117.609 224.25 117.968 223.821 118.272C223.384 118.577 222.893 118.774 222.33 118.792C221.911 118.81 221.5 118.863 221.08 118.845C220.509 118.828 219.919 118.801 219.402 118.505C219.036 118.29 218.714 118.021 218.446 117.663C217.875 116.911 217.652 116.06 217.768 115.146C217.911 114.08 218.428 113.221 219.402 112.71C219.893 112.45 220.437 112.361 220.991 112.316C221.518 112.271 222.053 112.307 222.562 112.415C223.339 112.585 224.044 112.952 224.473 113.695C224.794 114.242 224.982 114.815 224.955 115.46C224.946 115.675 224.955 115.89 224.955 116.167H220.161H220.178ZM222.544 115.012C222.455 114.654 222.473 114.34 222.232 114.089C221.982 113.83 221.669 113.776 221.348 113.776C220.803 113.776 220.312 114.152 220.241 115.021C220.991 115.021 221.741 115.039 222.544 115.012Z" fill="#EFBA1C"/>
<path d="M225.732 116.983C226.518 116.821 227.285 116.822 228.071 116.804C228.223 117.036 228.33 117.305 228.616 117.431C229 117.601 229.366 117.628 229.741 117.413C230.16 117.171 230.196 117.019 229.901 116.607C229.151 116.338 228.348 116.257 227.571 116.087C226.821 115.917 226.25 115.505 226 114.752C225.732 113.937 226.276 112.97 227.071 112.648C227.901 112.316 228.759 112.334 229.616 112.343C229.884 112.343 230.169 112.361 230.41 112.424C230.919 112.567 231.41 112.773 231.741 113.257C231.893 113.481 231.973 113.731 232.134 113.991C231.375 114.206 230.607 114.072 229.937 114.224C229.723 114.126 229.714 113.973 229.616 113.875C229.276 113.543 228.875 113.606 228.473 113.669C228.285 113.696 228.178 113.857 228.16 114.054C228.134 114.251 228.25 114.34 228.41 114.43C228.634 114.546 228.857 114.627 229.098 114.618C229.562 114.6 230 114.726 230.446 114.824C230.75 114.887 231.035 114.976 231.321 115.102C231.705 115.272 232 115.559 232.178 115.926C232.285 116.159 232.339 116.445 232.33 116.714C232.294 117.61 231.759 118.246 230.982 118.559C230.062 118.926 229.125 118.917 228.169 118.801C228.107 118.801 228.035 118.792 227.964 118.792C227.187 118.792 226.562 118.47 226.098 117.86C225.919 117.628 225.705 117.377 225.759 116.992L225.732 116.983Z" fill="#EFBA1C"/>
<path d="M194.866 116.311C195.643 116.311 196.384 116.382 197.152 116.562C196.928 117.287 196.589 117.896 195.937 118.308C195.705 118.451 195.464 118.568 195.223 118.666C194.866 118.828 194.464 118.81 194.08 118.846C193.518 118.908 192.937 118.846 192.393 118.756C191.785 118.648 191.232 118.371 190.785 117.914C190.446 117.574 190.169 117.162 190.071 116.723C189.964 116.221 189.902 115.675 189.991 115.146C190.053 114.77 190.08 114.412 190.268 114.054C190.5 113.597 190.821 113.23 191.223 112.934C191.821 112.495 192.518 112.388 193.232 112.334C193.777 112.289 194.321 112.325 194.839 112.432C195.5 112.576 196.134 112.862 196.544 113.471C196.678 113.677 196.785 113.892 196.919 114.089C197 114.206 197.035 114.331 196.955 114.493C196.259 114.636 195.527 114.618 194.884 114.779C194.723 114.725 194.741 114.627 194.705 114.564C194.562 114.287 194.339 114.116 194.027 114.045C193.437 113.919 192.803 114.134 192.58 114.6C192.285 115.209 192.196 115.827 192.491 116.481C192.714 116.983 193.089 117.215 193.616 117.242C194.178 117.26 194.544 117.009 194.768 116.481C194.794 116.418 194.83 116.364 194.866 116.32V116.311Z" fill="#EFBA1C"/>
<path d="M206.196 118.729V112.433C206.955 112.415 207.723 112.433 208.5 112.433V118.703C208.232 118.783 206.777 118.801 206.196 118.729Z" fill="#EFBA1C"/>
<path d="M208.5 111.725H206.223C206.116 111.466 206.187 111.197 206.178 110.928C206.169 110.677 206.178 110.418 206.178 110.131C206.964 110.086 207.723 110.095 208.509 110.122V111.725H208.5Z" fill="#EFBA1C"/>
</g>
<defs>
<clipPath id="clip0_1120_727">
<rect width="250" height="119" fill="white"/>
</clipPath>
</defs>
</svg>
